<mxfile host="app.diagrams.net" agent="Mozilla/5.0 (Windows NT 10.0; Win64; x64) AppleWebKit/537.36 (KHTML, like Gecko) Chrome/136.0.0.0 Safari/537.36" version="26.2.12">
  <diagram name="第 1 页" id="591iPnFUEl35cskzLpmG">
    <mxGraphModel dx="788" dy="467" grid="1" gridSize="10" guides="1" tooltips="1" connect="1" arrows="1" fold="1" page="1" pageScale="1" pageWidth="1654" pageHeight="1169" math="0" shadow="0">
      <root>
        <mxCell id="0" />
        <mxCell id="1" parent="0" />
        <mxCell id="DuTEC0PRk52E3c_eYPhu-1" value="" style="ellipse;whiteSpace=wrap;html=1;fillColor=#f8cecc;strokeColor=#b85450;" vertex="1" parent="1">
          <mxGeometry x="270" y="230" width="20" height="20" as="geometry" />
        </mxCell>
        <mxCell id="DuTEC0PRk52E3c_eYPhu-2" value="" style="ellipse;whiteSpace=wrap;html=1;fillColor=#dae8fc;strokeColor=#6c8ebf;" vertex="1" parent="1">
          <mxGeometry x="350" y="150" width="20" height="20" as="geometry" />
        </mxCell>
        <mxCell id="DuTEC0PRk52E3c_eYPhu-5" value="" style="endArrow=classic;html=1;rounded=0;entryX=0;entryY=1;entryDx=0;entryDy=0;exitX=1;exitY=0;exitDx=0;exitDy=0;fillColor=#d5e8d4;strokeColor=#82b366;" edge="1" parent="1" source="DuTEC0PRk52E3c_eYPhu-1" target="DuTEC0PRk52E3c_eYPhu-2">
          <mxGeometry width="50" height="50" relative="1" as="geometry">
            <mxPoint x="350" y="230" as="sourcePoint" />
            <mxPoint x="400" y="180" as="targetPoint" />
          </mxGeometry>
        </mxCell>
        <mxCell id="DuTEC0PRk52E3c_eYPhu-6" value="&lt;font face=&quot;Times New Roman&quot;&gt;GCJ&lt;/font&gt;" style="text;html=1;align=center;verticalAlign=middle;whiteSpace=wrap;rounded=0;" vertex="1" parent="1">
          <mxGeometry x="250" y="250" width="60" height="30" as="geometry" />
        </mxCell>
        <mxCell id="DuTEC0PRk52E3c_eYPhu-7" value="&lt;font face=&quot;Times New Roman&quot;&gt;GCJ&lt;sub&gt;2&lt;/sub&gt;&lt;/font&gt;" style="text;html=1;align=center;verticalAlign=middle;whiteSpace=wrap;rounded=0;" vertex="1" parent="1">
          <mxGeometry x="330" y="120" width="60" height="30" as="geometry" />
        </mxCell>
        <mxCell id="DuTEC0PRk52E3c_eYPhu-10" value="&lt;font face=&quot;Times New Roman&quot;&gt;WGS2GCJ&lt;/font&gt;" style="text;html=1;align=center;verticalAlign=middle;whiteSpace=wrap;rounded=0;" vertex="1" parent="1">
          <mxGeometry x="260" y="170" width="60" height="30" as="geometry" />
        </mxCell>
        <mxCell id="DuTEC0PRk52E3c_eYPhu-11" value="" style="endArrow=classic;html=1;rounded=0;entryX=0;entryY=1;entryDx=0;entryDy=0;exitX=1;exitY=0;exitDx=0;exitDy=0;fillColor=#d5e8d4;strokeColor=#82b366;" edge="1" parent="1">
          <mxGeometry width="50" height="50" relative="1" as="geometry">
            <mxPoint x="400" y="236" as="sourcePoint" />
            <mxPoint x="466" y="170" as="targetPoint" />
          </mxGeometry>
        </mxCell>
        <mxCell id="DuTEC0PRk52E3c_eYPhu-12" value="&lt;font face=&quot;Times New Roman&quot;&gt;dx,dy&lt;/font&gt;" style="text;html=1;align=center;verticalAlign=middle;whiteSpace=wrap;rounded=0;" vertex="1" parent="1">
          <mxGeometry x="420" y="200" width="60" height="30" as="geometry" />
        </mxCell>
        <mxCell id="DuTEC0PRk52E3c_eYPhu-25" value="" style="ellipse;whiteSpace=wrap;html=1;fillColor=#f8cecc;strokeColor=#b85450;" vertex="1" parent="1">
          <mxGeometry x="510" y="230" width="20" height="20" as="geometry" />
        </mxCell>
        <mxCell id="DuTEC0PRk52E3c_eYPhu-26" value="" style="ellipse;whiteSpace=wrap;html=1;fillColor=#dae8fc;strokeColor=#6c8ebf;" vertex="1" parent="1">
          <mxGeometry x="590" y="150" width="20" height="20" as="geometry" />
        </mxCell>
        <mxCell id="DuTEC0PRk52E3c_eYPhu-28" value="&lt;font face=&quot;Times New Roman&quot;&gt;GCJ&lt;/font&gt;" style="text;html=1;align=center;verticalAlign=middle;whiteSpace=wrap;rounded=0;" vertex="1" parent="1">
          <mxGeometry x="490" y="250" width="60" height="30" as="geometry" />
        </mxCell>
        <mxCell id="DuTEC0PRk52E3c_eYPhu-29" value="&lt;font face=&quot;Times New Roman&quot;&gt;GCJ&lt;sub&gt;2&lt;/sub&gt;&lt;/font&gt;" style="text;html=1;align=center;verticalAlign=middle;whiteSpace=wrap;rounded=0;" vertex="1" parent="1">
          <mxGeometry x="570" y="120" width="60" height="30" as="geometry" />
        </mxCell>
        <mxCell id="DuTEC0PRk52E3c_eYPhu-31" value="" style="endArrow=classic;html=1;rounded=0;entryX=0;entryY=1;entryDx=0;entryDy=0;fillColor=#d5e8d4;strokeColor=#82b366;exitX=1;exitY=0;exitDx=0;exitDy=0;" edge="1" parent="1" source="DuTEC0PRk52E3c_eYPhu-33" target="DuTEC0PRk52E3c_eYPhu-25">
          <mxGeometry width="50" height="50" relative="1" as="geometry">
            <mxPoint x="440" y="270" as="sourcePoint" />
            <mxPoint x="496" y="270" as="targetPoint" />
          </mxGeometry>
        </mxCell>
        <mxCell id="DuTEC0PRk52E3c_eYPhu-32" value="&lt;font face=&quot;Times New Roman&quot;&gt;dx,dy&lt;/font&gt;" style="text;html=1;align=center;verticalAlign=middle;whiteSpace=wrap;rounded=0;" vertex="1" parent="1">
          <mxGeometry x="460" y="280" width="60" height="30" as="geometry" />
        </mxCell>
        <mxCell id="DuTEC0PRk52E3c_eYPhu-33" value="" style="ellipse;whiteSpace=wrap;html=1;fillColor=#fff2cc;strokeColor=#d6b656;" vertex="1" parent="1">
          <mxGeometry x="430" y="310" width="20" height="20" as="geometry" />
        </mxCell>
        <mxCell id="DuTEC0PRk52E3c_eYPhu-34" value="&lt;font face=&quot;Times New Roman&quot;&gt;WGS&lt;/font&gt;" style="text;html=1;align=center;verticalAlign=middle;whiteSpace=wrap;rounded=0;" vertex="1" parent="1">
          <mxGeometry x="410" y="330" width="60" height="30" as="geometry" />
        </mxCell>
      </root>
    </mxGraphModel>
  </diagram>
</mxfile>
